<svg xmlns="http://www.w3.org/2000/svg" xmlns:xlink="http://www.w3.org/1999/xlink" viewBox="0 0 875.25 532.87"><defs><style>.cls-1{font-size:463.5px;fill:#00a6d5;font-family:Georgia;}.cls-2{fill:url(#linear-gradient);}.cls-3{fill:url(#linear-gradient-2);}.cls-4{fill:url(#linear-gradient-3);}.cls-5{fill:url(#linear-gradient-4);}.cls-6{fill:url(#linear-gradient-5);}.cls-7{fill:url(#linear-gradient-6);}.cls-8{font-size:80.73px;fill:#29abe2;font-family:Georgia-Bold, Georgia;font-weight:700;}.cls-9{fill:#22b573;letter-spacing:0em;}</style><linearGradient id="linear-gradient" x1="592.69" y1="288.93" x2="311.26" y2="304.46" gradientTransform="matrix(1, 0.09, -0.09, 1, 24.4, -46.58)" gradientUnits="userSpaceOnUse"><stop offset="0" stop-color="lime"/><stop offset="0.13" stop-color="#00e30a"/><stop offset="0.41" stop-color="#00af1d"/><stop offset="0.65" stop-color="#00882b"/><stop offset="0.84" stop-color="#007134"/><stop offset="0.96" stop-color="#006837"/></linearGradient><linearGradient id="linear-gradient-2" x1="546.67" y1="297.97" x2="277.2" y2="263.76" xlink:href="#linear-gradient"/><linearGradient id="linear-gradient-3" x1="652.35" y1="287.03" x2="374.41" y2="302.37" gradientTransform="translate(-65.6 173.41) rotate(-15.36)" xlink:href="#linear-gradient"/><linearGradient id="linear-gradient-4" x1="608.65" y1="304.69" x2="339.88" y2="270.58" gradientTransform="translate(-65.6 173.41) rotate(-15.36)" xlink:href="#linear-gradient"/><linearGradient id="linear-gradient-5" x1="767.47" y1="316.22" x2="490.94" y2="331.47" gradientTransform="translate(-74.92 228.59) rotate(-18.53)" xlink:href="#linear-gradient"/><linearGradient id="linear-gradient-6" x1="724.15" y1="334.33" x2="456.37" y2="300.34" gradientTransform="translate(-74.92 228.59) rotate(-18.53)" xlink:href="#linear-gradient"/></defs><g id="Layer_2" data-name="Layer 2"><g id="Layer_1-2" data-name="Layer 1"><text class="cls-1" transform="translate(11.81 392.33) scale(1.27 1)">A</text><path class="cls-2" d="M547.64,280.16c-18.06,11.69-75.8,34.64-145.69,33.75-65.4-.83-109.4-26.35-135.3-54.38,23.57,12.32,75.46,23.68,136.45,28.56C467.64,293.25,523.75,289.67,547.64,280.16Z"/><path class="cls-3" d="M539.76,279.51c-35.85,11.31-83.47,10.39-134.38,6.32s-98.47-12.77-134.67-27.89Z"/><path class="cls-4" d="M602,291.23c-13,13.39-59.48,46-125.57,65.13-61.82,17.92-112,12.33-145.93-.17,26.4,2,79.12-4.61,138.19-18.43C531.2,323.14,582.79,304.72,602,291.23Z"/><path class="cls-5" d="M594.38,293c-29.88,18.15-75,31-124.31,42.52s-97,18.84-136.29,18.4Z"/><path class="cls-6" d="M717.25,301.47c-12.1,14-56.41,48.7-121.14,70.94-60.57,20.81-111,17.58-145.73,6.7,26.49.8,78.7-8.32,136.78-24.9C648.62,336.67,698.93,315.85,717.25,301.47Z"/><path class="cls-7" d="M709.74,303.6c-28.65,19.53-72.88,34.47-121.35,48.3s-95.67,23.39-134.89,24.79Z"/><text class="cls-8" transform="translate(292.68 140.27) scale(0.72 1)">FRICAN JOURNEY <tspan x="0" y="93.12" xml:space="preserve">                         </tspan><tspan class="cls-9" x="512.44" y="93.12">TOUR</tspan></text></g></g></svg>