<svg xmlns="http://www.w3.org/2000/svg" xmlns:xlink="http://www.w3.org/1999/xlink" viewBox="0 0 786.22 686"><defs><style>.cls-1{font-size:596.7px;fill:#00a6d5;font-family:Georgia;}.cls-2{fill:url(#linear-gradient);}.cls-3{fill:url(#linear-gradient-2);}.cls-4{fill:url(#linear-gradient-3);}.cls-5{fill:url(#linear-gradient-4);}.cls-6{fill:url(#linear-gradient-5);}.cls-7{fill:url(#linear-gradient-6);}</style><linearGradient id="linear-gradient" x1="649.34" y1="362.78" x2="340.7" y2="379.81" gradientTransform="matrix(1, 0.09, -0.09, 1, 31.36, -42.08)" gradientUnits="userSpaceOnUse"><stop offset="0" stop-color="lime"/><stop offset="0.13" stop-color="#00e30a"/><stop offset="0.41" stop-color="#00af1d"/><stop offset="0.65" stop-color="#00882b"/><stop offset="0.84" stop-color="#007134"/><stop offset="0.96" stop-color="#006837"/></linearGradient><linearGradient id="linear-gradient-2" x1="598.86" y1="370.96" x2="302.57" y2="333.35" xlink:href="#linear-gradient"/><linearGradient id="linear-gradient-3" x1="709.73" y1="408.83" x2="401.12" y2="425.86" gradientTransform="translate(-87.47 164.35) rotate(-15.36)" xlink:href="#linear-gradient"/><linearGradient id="linear-gradient-4" x1="659.89" y1="422.29" x2="363.61" y2="384.69" gradientTransform="translate(-87.47 164.35) rotate(-15.36)" xlink:href="#linear-gradient"/><linearGradient id="linear-gradient-5" x1="832.66" y1="450.85" x2="524.05" y2="467.88" gradientTransform="translate(-101.56 218.42) rotate(-18.53)" xlink:href="#linear-gradient"/><linearGradient id="linear-gradient-6" x1="782.83" y1="464.31" x2="486.54" y2="426.71" gradientTransform="translate(-101.56 218.42) rotate(-18.53)" xlink:href="#linear-gradient"/></defs><g id="Layer_2" data-name="Layer 2"><g id="Layer_1-2" data-name="Layer 1"><text class="cls-1" transform="translate(12.94 505.07) scale(1.08 1)">A</text><path class="cls-2" d="M600.3,360.66c-19.8,15.06-83.09,44.6-159.7,43.46-71.68-1.07-119.92-33.93-148.31-70C318.13,350,375,364.6,441.86,370.88,512.61,377.52,574.12,372.91,600.3,360.66Z"/><path class="cls-3" d="M591.67,359.83c-39.31,14.56-91.51,13.38-147.3,8.14s-107.94-16.44-147.63-35.9Z"/><path class="cls-4" d="M659.9,374.92c-14.24,17.23-65.2,59.18-137.64,83.84-67.77,23.08-122.74,15.87-160-.21,28.94,2.63,86.73-5.94,151.48-23.72C582.29,416,638.83,392.29,659.9,374.92Z"/><path class="cls-5" d="M651.54,377.2c-32.75,23.37-82.22,39.89-136.26,54.73S408.9,456.2,365.88,455.62Z"/><path class="cls-6" d="M786.22,388.1c-13.26,18-61.83,62.69-132.79,91.33-66.39,26.79-121.68,22.63-159.74,8.63,29,1,86.27-10.72,149.93-32.06C711,433.42,766.15,406.61,786.22,388.1Z"/><path class="cls-7" d="M778,390.84C746.59,416,698.11,435.22,645,453S540.1,483.14,497.11,484.94Z"/></g></g></svg>