<svg class="background-blob" viewBox="0 0 200 200" xmlns="http://www.w3.org/2000/svg">
    <path fill="#FF0066" d="M24.7,-49.7C31.9,-38.6,37.5,-31.8,46.9,-24.2C56.2,-16.6,69.2,
    -8.3,73.2,2.3C77.2,12.9,72.1,25.8,66,39C60,52.2,52.8,65.7,41.6,68.2C30.4,70.7,15.2,62.3,
    1.4,60C-12.5,57.6,-25,61.3,-34.1,57.6C-43.2,53.8,-48.9,42.7,-49.7,31.8C-50.5,21,-46.4,10.5,
    -43.1,1.9C-39.9,-6.7,-37.5,-13.5,-38.1,-26.8C-38.7,-40,-42.3,-59.8,-36.5,-71.7C-30.7,-83.6,
    -15.3,-87.5,-3.3,-81.8C8.8,-76.1,17.5,-60.8,24.7,-49.7Z" transform="translate(100 100)" />
</svg>