<svg xmlns="http://www.w3.org/2000/svg" viewBox="0 0 262.38 347.08"><defs><style>.cls-1{fill:#2e8cff;}.cls-2,.cls-7,.cls-9{fill:#fff;}.cls-3,.cls-4,.cls-5,.cls-6,.cls-8{fill:none;}.cls-3,.cls-4,.cls-5,.cls-7,.cls-8,.cls-9{stroke:#fff;stroke-miterlimit:10;}.cls-4,.cls-7{stroke-width:0.5px;}.cls-5{stroke-width:0.75px;}.cls-8{stroke-width:0.25px;}</style></defs><g id="Layer_2" data-name="Layer 2"><g id="Layer_1-2" data-name="Layer 1"><path class="cls-1" d="M262.38,217.05c0,71.82-58.73,130-131.19,130a132.06,132.06,0,0,1-43.64-7.37C36.55,321.89,0,273.7,0,217.05A129.29,129.29,0,0,1,54,111.88a130,130,0,0,1,11.49-7.41Q70.6,101.54,76,99.08t11-4.46a132.68,132.68,0,0,1,83.44-1.7C223.69,109.44,262.38,158.77,262.38,217.05Z"/><path d="M87.24,339.07C35.34,320.71.5,271.74.5,217.05a129.77,129.77,0,0,1,1.36-18.73L3.05,197l2.56-.89,8.16.95h5.75l5.13.48,7.39-.49,6.73-2.42,8.22-1,5.68-.48h5.77a19.94,19.94,0,0,1,2.52-.47,18.47,18.47,0,0,1,4.54,0h.1l.1,0a11.3,11.3,0,0,1,3.22-.47h.25a11.14,11.14,0,0,1,3,.46,12.21,12.21,0,0,0,2.22.2,11.94,11.94,0,0,0,2.15-.19,12.13,12.13,0,0,0,4.86-2l.13-.1,2.64-8.37,1-3.39,1-4.37,1.55-10.14,2-5.47,3.07-4.52,2.78-3.62-.17-.29A11.11,11.11,0,0,1,94,145.82,11.3,11.3,0,0,1,94,144l0-.28-4.36-3.39-2.54-2.53L86,136.24l-2.25-.52-2.61-.49L77,134.74l-6.14-1-2.47-.92-3-2.36-3.07-2.87-1.5-1.88-2.05-2.39-1.52-2.85-2-4.74-.51-2.84-.5-3.72,1-2.71,1.5-1.86L58,103.38h2l2-.94,1.2.38,1,1.4,1.63,1c.58.55,1.23,1.17,1.89,1.78l.16.15,2.14,1,1.56,1,1.5.47L74.59,111l4.21,2,1.93,1.37,1.55,1.92,2.64,2,2.08,2,3.28,1.53H93.9l-2.09-3.24-3.1-2.89-1.52-2.37-1.58-2-4.11-3.85-1-2.37-1.06-1.49-1-1-1-2.36-3.09-4.33-1-3.3-.52-2.92-1.07-2-1-2.7c.16-.76.53-2.46.53-2.46s-.74-1.37-1.06-2V78.66l-.55-2-.49-.91V74.26l-.52-1V70l-1-3.93-.5-1.41V59.84l-.52-2.42V55l-.51-1.94V51.59l-.52-1.45V44a6.19,6.19,0,0,0-.27-1.33A7.66,7.66,0,0,1,65,41.54c0-.5-.42-2.44-.52-2.95V33.76L64,31.34V24.63l-.52-4.88L63,15.87V4.93l.42-1L70.77,31l2.58,11.57,2.06,11.57L78,63.41l1.55,6.74,1.54,7.71,1.57,5.35L84.23,91l3.14,5.39,4.16,5.83,5.75,5.86,4.65,4.82,7.42,6h7.72l4.1-2.48,4.2-3.43,5.18-4.35,5.69-4.83,5.12-4.3,3-1.42,3.69-2.46,5.72-2.41,3.7-4.44,3-3.32,3.11-1.93,6.25-6.81,2.58-3.37,4.19-3.43,1.57-3.91L181.42,62V60.54L184,57.16V54.34l2.07-3.49V49.08l2-3.48,1.57-5.37,1.57-5.87V30.45l1-4.8V1.92l.43-.69.1-.17,1.11,2.07,1.54,3.36,1,3.31.5,2.85L197.5,17l1,6.78V39.42L197.47,43l.49,1.39-.41.77-1.09,3.55v1.43L196,51.51,194.9,54v1.45L193.45,59l-.57,1.17L191.34,63l-1.57,2.44-.5,1.87-1.57,1.47-.53,3-1,1.36-1,1-.54,1.49-1,1.4-1,1L181,80.83l-1.56,1.45-.51,1-1,.91-1.6,2-2.53,2.36-1.61,2-.48.89-1,.45L169.56,93v.48l-1,1v1.4l2.07,1.93v1l1,1V101l.51,1.45v1.85l-.51,4.28-1,3.3-1,1.91-.51,2.87-1,1.43-.58,2-.48,1.81-3.46,3.23-5,2.35-2.64.49-2.68,2-1.15,1.07L151,133.59l-1.53,2.86-1.5,1.85-1.05,1.48-1,.89-1.48.9-2,1.23,2.33,3.81,2.58,4.34,1.53,3.33,1.52,5.72,1.55,3.86.51,3.81v7.73l1,3.45,1,4.32.5,4.77-.51,6.18v7.77l-.52,6.72.52,5.88V226l-.52,4.29-1,4.78-1.52,3.78-1.06,2.47-.52,3.38-1.53,3.81-2,3.82-3.1,5.29-3.1,3.86-1.55,3.38L135,269.69l-2.64,5.39-3.58,5.25-5.7,8.71-3.64,6.8-6.16,7.65-4.16,5.81-3.06,3.34L103,315l-4.66,3.87-4.78,3L93,324.42l-3.61,8.16Z"/><path class="cls-2" d="M192.79,2.06l.69,1.28L195,6.64l1,3.25.5,2.82.53,4.34,1,6.69V39.35l-1,3.35-.09.32.11.3.37,1-.31.58,0,.08,0,.1-1,3.38,0,.14v1.43l-.45,1.25-1,2.39-.09.19v1.46L193,58.76l-.55,1.14-.51,1-1,1.9-1.53,2.37-.08.14,0,.15-.45,1.65-1.34,1.26-.24.22-.06.33-.48,2.68-.85,1.18-1,.9-.17.17-.08.23-.47,1.31-.9,1.26-1,.89-.12.12-.08.14-.52,1-1,1.78-1.43,1.34-.12.11-.08.15-.44.82-.91.85-.05,0,0,.06-1.51,1.87-2.54,2.37,0,0,0,0-1.56,1.93-.05.08-.05.08-.36.67-.73.35-.15.06-.11.11-.72.67-.32.3-.31.29v.49l-.72.67-.32.29v1.84l.32.29,1,1,.72.67v1l.32.29.72.67v1.19l.06.16.45,1.29v1.7l-.5,4.2-1,3.2-1,1.85-.08.14,0,.15-.48,2.69-.87,1.27-.09.13,0,.15-.57,2-.44,1.66-1.86,1.74-1.44,1.34-3,1.38-1.95.91-2.46.46-.23,0-.19.14-2.59,1.93,0,0,0,0-1,1-.16.14-.08.2-1,2.37-1.48,2.78-1.5,1.86,0,0v0l-1,1.37-.89.83-1.47.91-1.55,1-.84.52.51.85,2.07,3.37,2.56,4.3,1.49,3.25,1.53,5.72,0,.06,0,.05,1.5,3.75.5,3.68v7.8l0,.15,1,3.35,1,4.25.5,4.68-.51,6.18v7.77l-.51,6.72v.17l.51,5.75V226l-.5,4.24-1,4.7L151,238.69l-1,2.41-.05.12,0,.12-.5,3.27-1.49,3.71-2,3.78-3.06,5.25-3.06,3.81-.08.09-.05.11-1.51,3.29-3.55,4.74-.06.08,0,.08-2.56,5.25-3.59,5.27-5.69,8.69,0,0,0,0L119,295.52l-6.15,7.65,0,0v0L108.75,309l-3,3.28-3.07,2.38-4.6,3.82-4.6,2.86-.36.23-.09.41-.49,2.32L89,332.38l0,0,0,0-2,6C35.49,320,1,271.36,1,217.05a129.58,129.58,0,0,1,1.33-18.51l1-1.1,1.16-.4,1.17-.41,3.66.43,4.39.51h5.76c1.71.16,3.42.31,5.13.48h.16l7.24-.49h.14l.13,0,4.49-1.61,2.13-.77,8.13-.95,2.85-.24,2.8-.24h5.77l.12,0a20.87,20.87,0,0,1,2.46-.46,18.85,18.85,0,0,1,4.42,0l.21,0,.19-.06a10.68,10.68,0,0,1,3.08-.45h.24a11,11,0,0,1,2.84.44h.11a12.7,12.7,0,0,0,4.49,0,12.52,12.52,0,0,0,5.05-2.1l.28-.19.1-.32,2.59-8.22,1-3.32,0-.06v-.06l1-4.35v-.08l1.54-10,2-5.37,3-4.44,2.09-2.73.48-.63.41-.53-.34-.58a10.58,10.58,0,0,1-1.42-4.42,10.23,10.23,0,0,1,0-1.75l.05-.54-.43-.34L90,140l-2.49-2.46-1-1.39-.22-.3-.37-.09-2.11-.49-2.59-.48h-.07l-4.1-.48L71,133.3l-2.35-.88-3-2.29-3-2.82-1.52-1.9-2-2.33-1.48-2.77-2-4.68-.49-2.74L55,111.75l-.34-2.49.9-2.51L57,105l1.21-1.13h1.9l.2-.1L62,103l.86.27.84,1.18.12.16.17.1,1,.62.48.3,2,1.86.12.11.14.07,2,.94,1.5.93.11.07.12,0,1.33.41.62.58.77.71.11.11.15.07,4.06,1.9,1.88,1.31,1.46,1.83.08.09.1.08c.85.63,1.7,1.26,2.54,1.9l2,1.89.12.11.14.07,1.84.85,1.27.6.2.09h4.64l-1-1.54-1.55-2.41-.07-.11-.09-.08-3-2.82L87.61,113l0,0,0,0L86,110.94l0,0,0,0-2.07-1.93-1.92-1.79-1-2.22,0-.1-.06-.09-1-1.45-.06-.08-.07-.06-.88-.83-1-2.22,0-.1-.07-.09-1-1.38,0-.07-1-1.45-.94-1.31-1-3.17-.5-2.84,0-.16-.07-.14-1-1.86-.92-2.56c.15-.71.31-1.43.46-2.14l.08-.36-.18-.33-.91-1.7V78.59l0-.12-.51-1.93,0-.12-.06-.1-.4-.74V74.13l-.12-.22-.4-.75V69.9l0-.12-1-3.87v0l0,0-.46-1.29V59.78l0-.1-.5-2.31V54.93l0-.13L66.56,53V51.51l-.06-.17L66,50.06V44a6.39,6.39,0,0,0-.29-1.46,7.86,7.86,0,0,1-.22-1,26.56,26.56,0,0,0-.52-3V33.7l0-.1-.49-2.31V24.53L64,19.67l-.5-3.8V6.1l6.81,25,2.58,11.55,2.07,11.59v.1l2.58,9.13,1.54,6.73L80.61,78V78l1.55,5.27L83.72,91l0,.16.09.14,2.22,3.82.88,1.5,0,0,0,0,4.14,5.79,0,.06.06.06,5.68,5.79,4.66,4.83,0,0,0,0,7.25,5.79.27.22h8l.24-.14,4-2.42.06,0,.05,0,4.15-3.39,5.18-4.35,5.69-4.82,5.07-4.27,3-1.39.07,0,.07,0L148.29,96l5.6-2.38.23-.09.15-.19L157,90l.82-1,3-3.28,3-1.86.12-.07.09-.1,3.1-3.38L170.28,77l0,0,0,0,2.51-3.29,4.05-3.31.2-.16.09-.24,1.5-3.72,3-3.75.22-.28V60.71l2.38-3.11.21-.27V54.47l1.93-3.25.14-.23V49.21l1.93-3.31.06-.1,0-.12,1.56-5.34,1.54-5.79,0-.13V30.5l1-4.69,0-.1V2.07h0m0-2.06-.52,1-.51.81V25.6l-1,4.8v3.89l-1.55,5.8-1.55,5.31-2.07,3.54v1.77l-2.07,3.49V57l-2.59,3.38v1.45l-3.1,3.87-1.55,3.86-4.14,3.38-2.59,3.38-3.1,3.38-3.11,3.38L160.23,85l-3.11,3.38-.84,1-2.78,3.33-5.69,2.42-3.62,2.41L141.09,99l-5.18,4.35-5.69,4.83-5.17,4.35-4.14,3.38-4,2.41h-7.4l-7.24-5.79-4.66-4.83-5.69-5.8-4.14-5.8-.87-1.49L84.7,90.8l-1.55-7.73-1.56-5.31L80,70l-1.55-6.76L75.91,54.1,73.84,42.5,71.25,30.91,63.49,2.42c-.35.8-.69,1.6-1,2.41V15.94L63,19.8l.52,4.83v6.76L64,33.81v4.83s.52,2.41.52,2.9S65,43.47,65,44v6.28l.52,1.45v1.45l.51,1.93v2.41l.52,2.42v4.83l.52,1.45,1,3.86v3.39l.52,1v1.45l.52,1c.17.65.35,1.29.52,1.94v1.93l1,1.93c-.17.8-.34,1.61-.52,2.42l1,2.89,1,1.93.52,2.9,1,3.38,1,1.45,1,1.45,0,.07,1,1.38,1,2.42,1,1,1,1.45,1,2.42,2.07,1.93,2.07,1.93,1.55,1.93,1.55,2.42,3.1,2.9L93,121.23H90.39l-3.1-1.45-2.07-1.93-2.59-1.93L81.08,114,79,112.54l-4.14-1.93-1.55-1.46-1.55-.48-1.56-1c-.68-.33-1.37-.65-2.07-1-.68-.64-1.37-1.29-2.07-1.93l-.55-.34-1-.63-1-1.45-1.55-.48-2.07,1H57.8l-1.55,1.45-1.56,1.93-1,2.89.37,2.73.15,1.14.51,2.9,2.07,4.83,1.56,2.9,2.07,2.41L61.94,128l3.1,2.9,3.1,2.41,2.59,1,6.21,1,4.14.48,2.58.48,2.07.49,1,1.45,2.59,2.56,4.13,3.23a11.28,11.28,0,0,0,0,1.93,11.8,11.8,0,0,0,1.56,4.83l-2.59,3.38-3.1,4.57-2.07,5.58-1.56,10.14c-.34,1.45-.69,2.9-1,4.35-.34,1.12-.69,2.25-1,3.38l-2.58,8.21a11.76,11.76,0,0,1-4.66,1.93,12,12,0,0,1-2.06.18,12.36,12.36,0,0,1-2.08-.18,11.59,11.59,0,0,0-3.1-.48h-.26a11.86,11.86,0,0,0-3.36.49,20.13,20.13,0,0,0-2.33-.14,19.47,19.47,0,0,0-2.33.14,19.89,19.89,0,0,0-2.58.48H52.63l-5.69.48-8.28,1-6.73,2.42-7.24.48-5.17-.48H13.83l-8.28-1-2.79,1L1.39,198.1a128.67,128.67,0,0,0-1.39,19C0,273.7,36.55,321.89,87.55,339.71l2.32-6.93,3.62-8.21.52-2.42,4.66-2.89,4.65-3.87,3.11-2.41,3.1-3.39,4.14-5.79,6.21-7.73,3.62-6.76,5.69-8.69,3.62-5.32L135.4,270l3.62-4.83,1.55-3.38,3.1-3.87,3.11-5.31,2.07-3.86,1.55-3.87.52-3.37,1-2.42,1.55-3.86,1-4.83.51-4.35V214.45l-.51-5.8.51-6.76v-7.73l.52-6.28-.52-4.83-1-4.34-1-3.38V167.6l-.52-3.87-1.55-3.86-1.56-5.8-1.55-3.38-2.59-4.34L143.16,143l1.55-1,1.55-1,1-1,1-1.45,1.55-1.93,1.55-2.9,1-2.42,1-1,2.59-1.94,2.59-.48,2.07-1,3.1-1.45,1.55-1.45,2.07-1.94.52-1.93.56-1.93,1-1.45.52-2.89,1-1.94,1-3.38.51-4.34v-1.94l-.51-1.45V99.5l-1-1v-1l-1-1-1-1v-1l1-1v-.48l.31-.3.72-.67,1-.48.51-1,1.56-1.93,2.58-2.41,1.56-1.94,1-1,.52-1,1.55-1.45,1-1.93.52-1,1-1,1-1.45.52-1.45,1-1,1-1.45.51-2.9,1.56-1.45.51-1.93,1.56-2.42,1-1.93.51-1,.59-1.2,1.48-3.63V54.1l1-2.42.52-1.45V48.78l1-3.38.52-1L198,43l1-3.49V23.67l-1-6.77-.52-4.34L197,9.66l-1-3.38L194.37,2.9,192.82,0Z"/><polygon class="cls-3" points="95.27 127.46 98.59 124.27 100.81 122.14 103.59 121.08 105.25 120.02 108.03 119.49 109.74 119.49 111.28 119.49 113.57 121.08 114.68 121.08 116.35 121.08 118.57 121.08 120.23 122.14 121.34 120.02 122.54 119.49 123.56 118.42 125.78 118.95 128.55 119.49 130.22 120.02 131.88 121.08 134.1 122.14 136.34 122.94 138.54 124.8 139.65 125.87 140.76 128.52 141.31 130.12 141.87 132.78 141.87 135.11 141.87 136.99 141.31 139.69 140.2 141.81 140.76 143.41 140.76 146.6 139.65 148.72 137.98 151.91 136.32 155.63 134.1 159.88 132.99 162.54 130.77 166.26 128 169.45 126.89 172.11 124.67 174.77 123 176.9 121.89 179.02 121.34 181.15 119.68 182.74 117.46 184.87 116.9 186.46 116.9 187.53 115.24 188.59 112.46 190.18 111.36 191.25 109.69 192.31 108.47 192.31 106.36 191.25 103.59 190.18 101.92 188.06 100.26 186.46 99.15 184.34 98.04 183.27 95.82 182.74 95.27 181.22 95.27 178.8 95.27 175.69 95.27 173.4 94.16 170.52 95.27 168.92 95.82 165.73 95.82 162.54 96.38 159.88 96.38 156.7 96.38 153.51 94.71 151.38 94.16 149.53 94.16 147.65 94.16 146.3 94.16 145.35 94.16 143.87 91.94 142.88 91.38 141.28 91.38 139.56 90.27 140.75 88.06 141.28 86.94 142.34 89.16 140.22 90.27 138.62 91.38 137.56 91.94 134.9 92.49 133.84 93.05 133.31 93.6 132.24 94.16 130.12 95.27 127.46"/><path class="cls-4" d="M99.15,184.34h11.1l2.77-.69,2.77-.91,2.78-1.06,1.11-1.06,1.11-2.63v-5.88l-1.11-3.19-2.22-2.66-1.53-1.59-3-.53H108l-2.78,1.06h-3.88l-2.22.38-1.66.68-1.11,1.07v1.49L95,172.76l.25.64a18,18,0,0,1,.55,4,9.19,9.19,0,0,0,.56,3.72,6.45,6.45,0,0,0,.55,1.06A6.93,6.93,0,0,0,99.15,184.34Z"/><polygon class="cls-5" points="105.25 168.92 107.9 168.01 109.46 168.01 111.28 168.01 112.83 168.01 114.41 168.92 116.21 168.92 117.46 169.99 117.46 171.92 116.07 174.24 114.41 174.24 113.25 174.24 112.46 175.3 111.36 176.64 112.69 176.64 114.41 177.58 115.51 177.58 116.9 179.55 117.46 179.55 117.46 180.68 117.46 182.1 110.25 184.34 99.15 184.34 96.93 182.21 96.11 180.37 95.82 177.43 95.27 173.4 95.27 170.97 96.38 170.52 98.04 169.45 99.15 167.86 100.87 167.86 102.7 167.86 105.25 168.92"/><polygon class="cls-4" points="95.27 143.6 96.38 142.88 97.07 142.88 98.59 143.41 99.15 145.53 99.15 148.19 99.15 151.02 101.37 148.19 102.48 145.53 102.48 143.87 102.48 141.71 102.48 140.37 100.87 140.37 98.87 139.42 97.49 138.09 96.38 135.97 95.27 133.76 93.87 131.21 93.05 133.31 92.49 133.84 91.94 134.9 91.38 137.56 91.38 139.56 91.38 141.28 91.94 142.88 94.16 143.87 95.27 143.6"/><polygon class="cls-5" points="133.52 141.11 135.76 142.34 137.43 142.88 138.87 142.88 140.2 141.81 141.31 139.69 141.87 136.99 141.87 135.11 140.2 134.37 138.54 133.31 136.32 133.84 134.66 134.9 133.52 136.05 131.88 136.5 130.99 138.09 129.11 140.75 128.03 142.88 126.89 143.94 126.89 146.57 126.33 148.19 128 146.06 128.55 143.94 129.11 142.34 130 141.11 131.13 141.11 133.52 141.11"/><polygon class="cls-5" points="120.23 146.06 123 146.6 124.23 148.19 124.23 149.4 125.22 148.19 126.89 146.57 126.89 143.94 128.03 142.88 129.11 140.75 130.99 138.09 131.88 136.5 133.52 136.05 134.66 134.9 136.32 133.84 138.54 133.31 140.2 134.37 141.87 135.11 141.87 132.78 141.31 130.12 140.76 128.52 139.65 125.87 137.88 125.87 136.05 125.87 134.66 126.93 132.99 129.06 131.05 132.14 128.88 133.31 127.44 134.9 126.33 136.32 125.36 137.63 123.56 139.16 121.84 141.11 120.79 142.52 120.79 144.28 120.23 146.06"/><polygon class="cls-4" points="98.04 169.45 98.04 171.05 99.15 171.58 99.7 172.64 100.81 173.17 100.81 173.97 101.37 174.77 101.37 175.51 101.78 176.1 101.92 176.9 101.92 177.08 101.92 177.48 100.81 176.9 99.98 176.1 99.7 175.3 99.07 174.24 98.59 173.71 97.42 173.47 96.93 172.63 96.93 171.58 96.93 171.05 96.93 170.16 98.04 169.45"/><path class="cls-6" d="M114.41,168.92l-.84,1.6H113l-.51.53H110.8l-.55,1.06h-.56l-.55.53-.24.83-.32.24-.68.53.68.53v1.59l-.55.54v.53h1l.67-.53.56-.54v-.53l.55-.53,1.11-.53v-.53h.69l.42-.53.28-.24.7-.3.68-.53a.53.53,0,0,1,.56-.53,2,2,0,0,0,1.11-.53v-1.94l-.14-.72Z"/><polygon class="cls-5" points="103.26 184.34 103.59 183.81 104.14 182.74 104.14 182.21 103.7 181.14 103.03 180.62 102.48 180.09 101.92 179.55 100.81 179.02 100.26 178.49 100.26 178.15 100.81 177.96 101.37 177.96 101.66 177.48 101.92 177.48 102.2 176.85 103.22 176.85 103.88 176.85 104.14 177.43 104.7 177.43 105.25 176.9 105.48 176.85 106.36 176.9 106.92 176.9 107.46 176.85 108.03 176.9 108.03 177.43 109.02 177.43 109.69 177.96 109.69 178.54 109.14 179.02 108.58 179.02 107.9 179.57 107.47 179.55 106.92 180.09 106.36 180.59 105.81 181.15 105.81 181.68 105.81 182.21 105.81 182.74 106.36 183.27 106.92 183.81 106.78 184.34 103.26 184.34"/><polygon class="cls-7" points="99.15 167.86 98.04 169.45 98.04 171.05 99.15 171.58 99.7 172.64 100.81 173.17 100.81 173.97 101.37 174.77 101.37 175.51 101.78 176.1 101.92 176.9 103.67 176.85 104.14 177.43 104.7 177.43 105.25 176.9 106.36 176.9 106.92 176.9 107.46 176.85 108.03 176.9 108.58 176.36 108.58 174.77 107.9 174.24 108.9 173.47 109.14 172.64 109.69 172.11 110.25 172.11 110.8 171.05 112.46 171.05 112.97 170.52 113.57 170.52 114.41 168.92 112.83 168.01 107.9 168.01 105.25 168.92 102.7 167.86 99.15 167.86"/><polygon class="cls-8" points="91.38 137.56 91.94 137.03 92.76 137.03 93.74 137.29 94.16 138.09 95.27 138.62 95.82 139.16 96.93 139.85 97.72 141.11 98.59 141.81 99.15 142.88 99.7 143.94 99.7 145.5 99.15 146.2 98.59 143.41 97.07 142.88 96.38 142.88 95.27 143.6 94.16 143.87 91.94 142.88 91.38 141.28 91.38 139.56 91.38 137.56"/><path class="cls-3" d="M142.73,142.83l3.44-2.74,3.1-3.75c.58-1.44,1.16-2.89,1.75-4.33l2.73-2.84,2.41-1.36,2.75-.34,4.82-2.39,2.07-2,1.38-1.36c.45-1.37.91-2.73,1.37-4.1q.87-2.73,1.72-5.46l1.38-4.1.52-4.55-1-4.21-1.94-2.84-1.5-2.3-3.93-.94-1.48.47-4.43,3.74-1,1.65L153,103,150,104.4l-1,2.34-1.48,2.81-2,1.4-1.48,1.87-1.48.47-1,2-2.46,2.7v1.82l-1.48.52,1.9,3.74,1,2,1.38,3.07.69,5.12v8.54Z"/><polygon class="cls-2" points="145.06 130.57 147.03 129.63 148.1 129.63 149.98 128.23 151.46 126.35 152.44 125.42 153.92 125.42 155.39 124.48 157.47 124.48 161 123.69 162.28 123.08 164.01 121.1 165.49 119.28 167.2 117 168.68 113.25 169.66 109.04 171.14 104.83 170.15 100.62 168.18 99.21 167.2 98.28 165.03 98.28 164.05 98.28 162.77 102.49 159.33 106.23 158.1 109.97 156.38 112.78 155.65 114.42 153.92 118.49 152.94 120.74 151.95 121.67 149 123.08 148.02 124.48 146.05 124.95 146.05 126.82 145.06 128.34 144.08 129.16 145.06 130.57"/><path class="cls-9" d="M62.84,113.48l1-.69,1-.34h1.44l1.66.34,1.74.69,1.36,1,1.37.34,1,.34,1.37,1.37,1,1.36,1.72,2,.34.68,1,1.71s.34,0,1.37,1l1.38,1.37a13.18,13.18,0,0,0,1.38,1l.34,1v.88l-.34,1.16-.35,1-.34.68-.35.68-2.06-1L78,129.86l-2.75-1h-1l-1.72-1-.69-.34-.68-.68-.69-.69-1-1h-1l-1,.34h-1l-1-1a4.65,4.65,0,0,0-.69-1,11.16,11.16,0,0,1-1-1.7l-1.38-1.37v-1.09l-.69-1.64s.35-.84,0-1.1a1,1,0,0,1-.34-1,3.42,3.42,0,0,1,.34-1l.69-.68Z"/></g></g></svg>